<?xml version="1.0" standalone="no"?>
<!DOCTYPE svg PUBLIC "-//W3C//DTD SVG 20010904//EN"
 "http://www.w3.org/TR/2001/REC-SVG-20010904/DTD/svg10.dtd">
<svg version="1.0" xmlns="http://www.w3.org/2000/svg"
 width="256.000000pt" height="256.000000pt" viewBox="0 0 256.000000 256.000000"
 preserveAspectRatio="xMidYMid meet">
<metadata>
Created by potrace 1.14, written by Peter Selinger 2001-2017
</metadata>
<g transform="translate(0.000000,256.000000) scale(0.100000,-0.100000)"
fill="#000000" stroke="none">
<path d="M1202 2539 c-157 -80 -98 -320 80 -319 125 1 207 142 146 252 -44 78
-146 108 -226 67z"/>
<path d="M458 2230 c-52 -15 -89 -45 -112 -91 -57 -115 23 -244 150 -243 137
2 214 148 139 262 -38 57 -116 89 -177 72z"/>
<path d="M2023 2228 c-50 -11 -108 -64 -122 -112 -28 -103 42 -209 144 -219
138 -14 233 130 165 250 -36 66 -109 97 -187 81z"/>
<path d="M1168 1960 c-220 -37 -420 -190 -512 -391 -46 -102 -60 -167 -60
-284 0 -125 17 -204 66 -305 86 -177 235 -302 428 -361 111 -34 283 -32 395 5
356 118 547 463 461 831 -14 62 -68 178 -106 229 -20 26 -118 126 -150 151
-41 33 -170 94 -235 110 -70 19 -219 26 -287 15z m245 -289 c103 -33 211 -141
254 -257 72 -187 -24 -414 -212 -504 -181 -86 -400 -28 -511 137 -102 149 -97
335 11 482 25 34 49 61 53 61 5 0 17 8 28 19 26 24 57 40 119 62 57 20 192 20
258 0z"/>
<path d="M102 1435 c-96 -42 -130 -163 -71 -249 37 -55 90 -80 154 -73 65 7
108 36 135 92 69 143 -73 293 -218 230z"/>
<path d="M2305 1427 c-149 -84 -86 -316 86 -317 86 0 169 83 169 170 0 126
-145 210 -255 147z"/>
<path d="M455 663 c-34 -9 -86 -50 -107 -83 -12 -20 -19 -51 -20 -80 -1 -127
118 -207 236 -158 121 49 135 228 23 296 -34 21 -100 33 -132 25z"/>
<path d="M2035 663 c-50 -10 -78 -29 -106 -70 -58 -84 -37 -190 48 -240 52
-30 112 -34 164 -9 35 17 88 86 90 118 3 44 2 55 -5 83 -18 77 -112 134 -191
118z"/>
<path d="M1205 323 c-91 -48 -120 -158 -65 -248 26 -43 65 -64 128 -71 129
-15 222 128 162 246 -39 77 -150 113 -225 73z"/>
</g>
</svg>
